<svg xmlns="http://www.w3.org/2000/svg" style="display: none;">
  <symbol id="icon-edit" viewBox="0 0 24 24">
    <path d="M3 17.25V21h3.75L17.81 9.94l-3.75-3.75L3 17.25zM20.71 7.04a1.003 1.003 0 0 0 0-1.42l-2.34-2.34a1.003 1.003 0 0 0-1.42 0l-1.83 1.83 3.75 3.75 1.84-1.82z"/>
  </symbol>
  <symbol id="icon-delete" viewBox="0 0 24 24">
    <path d="M6 19c0 1.1.9 2 2 2h8c1.1 0 2-.9 2-2V7H6v12zM19 4h-3.5l-1-1h-5l-1 1H5v2h14V4z"/>
  </symbol>
  <symbol id="icon-add" viewBox="0 0 24 24">
    <path d="M19 13H13v6h-2v-6H5v-2h6V5h2v6h6v2z"/>
  </symbol>
  <symbol id="icon-folder" viewBox="0 0 24 24">
    <path d="M10 4H2v16h20V6H12l-2-2z"/>
  </symbol>
  <symbol id="icon-back" viewBox="0 0 24 24">
    <path d="M19 11H7.83l5.59-5.59L12 4l-8 8 8 8 1.41-1.41L7.83 13H19v-2z"/>
  </symbol>
  <symbol id="icon-note" viewBox="0 0 24 24">
    <path d="M3 3v18h18V3H3zm8 14H7v-2h4v2zm6-4H7v-2h10v2zm0-4H7V7h10v2z"/>
  </symbol>
</svg>
